
<svg xmlns="http://www.w3.org/2000/svg" xmlns:xlink="http://www.w3.org/1999/xlink">
    <symbol id="telegram" viewBox="0 0 24 24">
        <path fill-rule="evenodd" clip-rule="evenodd" d="M5.78754 14.0196C5.83131 14.0344 5.87549 14.0448 5.91963 14.0512C5.96777 14.1644 6.02996 14.3107 6.10252 14.4818C6.27959 14.8994 6.51818 15.4643 6.76446 16.0535C7.2667 17.2552 7.77332 18.4939 7.88521 18.8485C8.02372 19.2868 8.17013 19.5848 8.32996 19.7883C8.4126 19.8935 8.50819 19.9853 8.62003 20.0549C8.67633 20.0899 8.7358 20.1186 8.79788 20.14C8.80062 20.141 8.80335 20.1419 8.80608 20.1428C9.1261 20.2636 9.41786 20.2133 9.60053 20.1518C9.69827 20.1188 9.77735 20.0791 9.8334 20.0469C9.86198 20.0304 9.88612 20.0151 9.90538 20.0021L9.90992 19.9991L12.7361 18.2366L16.0007 20.7394C16.0488 20.7763 16.1014 20.8073 16.157 20.8316C16.5492 21.0027 16.929 21.0624 17.2862 21.0136C17.6429 20.9649 17.926 20.8151 18.1368 20.6464C18.3432 20.4813 18.4832 20.2963 18.5703 20.1589C18.6148 20.0887 18.6482 20.0266 18.6718 19.9791C18.6836 19.9552 18.6931 19.9346 18.7005 19.9181L18.7099 19.8963L18.7135 19.8877L18.715 19.8841L18.7156 19.8824L18.7163 19.8808C18.7334 19.8379 18.7466 19.7935 18.7556 19.7482L21.7358 4.72274C21.7453 4.67469 21.7501 4.62581 21.7501 4.57682C21.7501 4.13681 21.5843 3.71841 21.1945 3.46452C20.8613 3.24752 20.4901 3.23818 20.2556 3.25598C20.0025 3.27519 19.7688 3.33766 19.612 3.38757C19.5304 3.41355 19.4619 3.43861 19.4126 3.45773C19.3878 3.46734 19.3675 3.47559 19.3523 3.48188L19.341 3.48666L2.62725 10.0432L2.62509 10.044C2.61444 10.0479 2.60076 10.053 2.58451 10.0593C2.55215 10.0719 2.50878 10.0896 2.45813 10.1126C2.35935 10.1574 2.22077 10.2273 2.07856 10.3247C1.85137 10.4803 1.32888 10.9064 1.41686 11.6097C1.48705 12.1708 1.87143 12.5154 2.10562 12.6811C2.23421 12.7721 2.35638 12.8371 2.44535 12.8795C2.48662 12.8991 2.57232 12.9339 2.6095 12.9491L2.61889 12.9529L5.78754 14.0196ZM19.9259 4.86786L19.9236 4.86888C19.9152 4.8725 19.9069 4.87596 19.8984 4.87928L3.1644 11.4438C3.15566 11.4472 3.14686 11.4505 3.138 11.4536L3.12869 11.4571C3.11798 11.4613 3.09996 11.4686 3.07734 11.4788C3.06451 11.4846 3.05112 11.491 3.03747 11.4978C3.05622 11.5084 3.07417 11.5175 3.09012 11.5251C3.10543 11.5324 3.11711 11.5374 3.1235 11.54L6.26613 12.598C6.32365 12.6174 6.37727 12.643 6.42649 12.674L16.8033 6.59948L16.813 6.59374C16.8205 6.58927 16.8305 6.58353 16.8424 6.5768C16.866 6.56345 16.8984 6.54568 16.937 6.52603C17.009 6.48938 17.1243 6.43497 17.2541 6.39485C17.3444 6.36692 17.6109 6.28823 17.899 6.38064C18.0768 6.43767 18.2609 6.56028 18.3807 6.76798C18.4401 6.87117 18.4718 6.97483 18.4872 7.06972C18.528 7.2192 18.5215 7.36681 18.4896 7.49424C18.4208 7.76875 18.228 7.98287 18.0525 8.14665C17.9021 8.28706 15.9567 10.1629 14.0376 12.0147C13.0805 12.9381 12.1333 13.8525 11.4252 14.5359L10.9602 14.9849L16.8321 19.4867C16.9668 19.5349 17.0464 19.5325 17.0832 19.5274C17.1271 19.5214 17.163 19.5045 17.1997 19.4752C17.2407 19.4424 17.2766 19.398 17.3034 19.3557L17.3045 19.354L20.195 4.78102C20.1521 4.79133 20.1087 4.80361 20.0669 4.81691C20.0196 4.83198 19.9805 4.84634 19.9547 4.85637C19.9418 4.86134 19.9326 4.86511 19.9276 4.86719L19.9259 4.86786ZM11.4646 17.2618L10.2931 16.3636L10.0093 18.1693L11.4646 17.2618ZM9.21846 14.5814L10.3834 13.4567C11.0915 12.7732 12.0389 11.8588 12.9961 10.9352L13.9686 9.997L7.44853 13.8138L7.48351 13.8963C7.66121 14.3154 7.90087 14.8827 8.14845 15.4751C8.33358 15.918 8.52717 16.3844 8.70349 16.8162L8.98653 15.0158C9.01381 14.8422 9.09861 14.692 9.21846 14.5814Z"/>
    </symbol>

    <symbol id="whatsapp" viewBox="0 0 24 24" >
        <g>
            <path fill="none"  d="M0 0h24v24H0z"/>
            <path fill-rule="nonzero" d="M7.253 18.494l.724.423A7.953 7.953 0 0 0 12 20a8 8 0 1 0-8-8c0 1.436.377 2.813 1.084 4.024l.422.724-.653 2.401 2.4-.655zM2.004 22l1.352-4.968A9.954 9.954 0 0 1 2 12C2 6.477 6.477 2 12 2s10 4.477 10 10-4.477 10-10 10a9.954 9.954 0 0 1-5.03-1.355L2.004 22zM8.391 7.308c.134-.01.269-.01.403-.004.054.004.108.01.162.016.159.018.334.115.393.249.298.676.588 1.357.868 2.04.062.152.025.347-.093.537a4.38 4.38 0 0 1-.263.372c-.113.145-.356.411-.356.411s-.099.118-.061.265c.014.056.06.137.102.205l.059.095c.256.427.6.86 1.02 1.268.12.116.237.235.363.346.468.413.998.75 1.57 1l.005.002c.085.037.128.057.252.11.062.026.126.049.191.066a.35.35 0 0 0 .367-.13c.724-.877.79-.934.796-.934v.002a.482.482 0 0 1 .378-.127c.06.004.121.015.177.04.531.243 1.4.622 1.4.622l.582.261c.098.047.187.158.19.265.004.067.01.175-.013.373-.032.259-.11.57-.188.733a1.155 1.155 0 0 1-.21.302 2.378 2.378 0 0 1-.33.288 3.71 3.71 0 0 1-.125.09 5.024 5.024 0 0 1-.383.22 1.99 1.99 0 0 1-.833.23c-.185.01-.37.024-.556.014-.008 0-.568-.087-.568-.087a9.448 9.448 0 0 1-3.84-2.046c-.226-.199-.435-.413-.649-.626-.89-.885-1.562-1.84-1.97-2.742A3.47 3.47 0 0 1 6.9 9.62a2.729 2.729 0 0 1 .564-1.68c.073-.094.142-.192.261-.305.127-.12.207-.184.294-.228a.961.961 0 0 1 .371-.1z"/>
        </g>
    </symbol>

    <symbol id="pinterest" viewBox="0 0 13 16">
        <path d="M6.74032 0.203125C3.55564 0.203125 0.408203 2.34063 0.408203 5.8C0.408203 8 1.63738 9.25 2.38233 9.25C2.68963 9.25 2.86655 8.3875 2.86655 8.14375C2.86655 7.85313 2.13091 7.23438 2.13091 6.025C2.13091 3.5125 4.03055 1.73125 6.4889 1.73125C8.60271 1.73125 10.1671 2.94062 10.1671 5.1625C10.1671 6.82187 9.50597 9.93437 7.36422 9.93437C6.59133 9.93437 5.93018 9.37187 5.93018 8.56563C5.93018 7.38438 6.74963 6.24062 6.74963 5.02187C6.74963 2.95312 3.835 3.32812 3.835 5.82812C3.835 6.35313 3.90018 6.93437 4.13298 7.4125C3.70463 9.26875 2.82931 12.0344 2.82931 13.9469C2.82931 14.5375 2.91311 15.1188 2.96899 15.7094C3.07452 15.8281 3.02175 15.8156 3.18316 15.7563C4.74757 13.6 4.69169 13.1781 5.3994 10.3562C5.78119 11.0875 6.76826 11.4812 7.55046 11.4812C10.8469 11.4812 12.3275 8.24688 12.3275 5.33125C12.3275 2.22813 9.66427 0.203125 6.74032 0.203125Z"/>
    </symbol>

    <symbol id="twitter" viewBox="0 0 17 14">
        <path d="M14.417 3.74052C14.427 3.88264 14.427 4.0248 14.427 4.16692C14.427 8.50192 11.1498 13.4969 5.15986 13.4969C3.31448 13.4969 1.60022 12.9588 0.158203 12.0248C0.420396 12.0552 0.67247 12.0654 0.944752 12.0654C2.46741 12.0654 3.8691 11.5476 4.98843 10.6644C3.5565 10.6339 2.3565 9.68977 1.94305 8.39027C2.14475 8.4207 2.34642 8.44102 2.5582 8.44102C2.85063 8.44102 3.14308 8.40039 3.41533 8.32936C1.92291 8.02477 0.803551 6.70498 0.803551 5.11108V5.07048C1.23715 5.31414 1.74139 5.46642 2.2758 5.4867C1.39849 4.89786 0.823727 3.8928 0.823727 2.75573C0.823727 2.14661 0.985041 1.58823 1.26741 1.10092C2.87077 3.09077 5.28086 4.39023 7.98334 4.53239C7.93293 4.28873 7.90266 4.03495 7.90266 3.78114C7.90266 1.97402 9.35477 0.501953 11.1598 0.501953C12.0976 0.501953 12.9446 0.897891 13.5396 1.53748C14.2757 1.39536 14.9816 1.12123 15.6068 0.745609C15.3648 1.50705 14.8505 2.14664 14.1749 2.5527C14.8304 2.48167 15.4657 2.29889 16.0505 2.04511C15.6069 2.69483 15.0522 3.27348 14.417 3.74052Z"/>
    </symbol>
</svg>